<?xml version="1.0" encoding="utf-8"?>
<!-- Generator: Adobe Illustrator 16.0.5, SVG Export Plug-In . SVG Version: 6.00 Build 0)  -->
<!DOCTYPE svg PUBLIC "-//W3C//DTD SVG 1.1//EN" "http://www.w3.org/Graphics/SVG/1.1/DTD/svg11.dtd">
<svg version="1.1" id="Layer_1" xmlns="http://www.w3.org/2000/svg" xmlns:xlink="http://www.w3.org/1999/xlink" x="0px" y="0px"
	 width="30.1px" height="24px" viewBox="0 0 30.1 24" enable-background="new 0 0 30.1 24" xml:space="preserve">
<path fill="#FFFFFF" d="M30.1,2.8c-1.1,0.5-2.3,0.8-3.5,1c1.3-0.7,2.2-1.9,2.7-3.4c-1.2,0.7-2.5,1.2-3.9,1.5C24.2,0.7,22.6,0,20.9,0
	c-4,0-6.9,3.6-6,7.4C9.8,7.2,5.2,4.8,2.2,1.1C0.6,3.8,1.4,7.4,4.1,9.2c-1,0-2-0.3-2.8-0.8c-0.1,2.8,2,5.4,4.9,6
	c-0.9,0.2-1.8,0.3-2.8,0.1c0.8,2.4,3.1,4.2,5.7,4.2c-2.6,2-5.8,2.9-9.1,2.5C2.8,23,6.1,24,9.5,24C20.9,24,27.4,14.5,27,6
	C28.2,5.1,29.3,4.1,30.1,2.8"/>
</svg>
