<?xml version="1.0" encoding="utf-8"?>
<!-- Generator: Adobe Illustrator 16.0.5, SVG Export Plug-In . SVG Version: 6.00 Build 0)  -->
<!DOCTYPE svg PUBLIC "-//W3C//DTD SVG 1.1//EN" "http://www.w3.org/Graphics/SVG/1.1/DTD/svg11.dtd">
<svg version="1.1" id="Layer_1" xmlns="http://www.w3.org/2000/svg" xmlns:xlink="http://www.w3.org/1999/xlink" x="0px" y="0px"
	 width="18.443px" height="29.999px" viewBox="364.197 432 18.443 29.999" enable-background="new 364.197 432 18.443 29.999"
	 xml:space="preserve">
<path id="tumblr-icon" fill="#FFFFFF" d="M370.277,432c-0.189,1.546-0.541,2.817-1.047,3.819c-0.506,1.001-1.178,1.856-2.016,2.57
	c-0.838,0.713-1.843,1.263-3.018,1.645v4.272h3.286v10.514c0,1.371,0.144,2.416,0.431,3.138c0.286,0.721,0.804,1.402,1.547,2.043
	c0.742,0.642,1.641,1.133,2.695,1.479c1.053,0.346,2.265,0.519,3.635,0.519c1.207,0,2.331-0.121,3.37-0.362
	c1.038-0.244,2.197-0.666,3.479-1.27v-4.716c-1.503,0.987-3.013,1.48-4.531,1.48c-0.854,0-1.614-0.199-2.276-0.598
	c-0.502-0.293-0.845-0.688-1.028-1.182c-0.186-0.495-0.276-1.611-0.276-3.351v-7.695h7.123v-4.708h-7.123V432H370.277z"/>
</svg>
