<?xml version="1.0" encoding="utf-8"?>
<!-- Generator: Adobe Illustrator 16.0.5, SVG Export Plug-In . SVG Version: 6.00 Build 0)  -->
<!DOCTYPE svg PUBLIC "-//W3C//DTD SVG 1.1//EN" "http://www.w3.org/Graphics/SVG/1.1/DTD/svg11.dtd">
<svg version="1.1" id="Layer_1" xmlns="http://www.w3.org/2000/svg" xmlns:xlink="http://www.w3.org/1999/xlink" x="0px" y="0px"
	 width="30px" height="30px" viewBox="0 0 30 30" enable-background="new 0 0 30 30" xml:space="preserve">
<g>
	<path fill="#FFFFFF" d="M4,22c-2.2,0-4,1.8-4,4c0,2.2,1.8,4,4,4c2.2,0,4-1.8,4-4C8,23.8,6.2,22,4,22L4,22z M0,10.2v5.8
		c3.7,0,7.3,1.5,9.9,4.1c2.6,2.6,4.1,6.2,4.1,9.9h5.8C19.8,19.1,10.9,10.2,0,10.2L0,10.2z M0,0v5.8c13.4,0,24.2,10.9,24.2,24.2H30
		C30,13.5,16.5,0,0,0L0,0z M0,0"/>
</g>
</svg>
