<?xml version="1.0" encoding="utf-8"?>
<!-- Generator: Adobe Illustrator 16.0.5, SVG Export Plug-In . SVG Version: 6.00 Build 0)  -->
<!DOCTYPE svg PUBLIC "-//W3C//DTD SVG 1.1//EN" "http://www.w3.org/Graphics/SVG/1.1/DTD/svg11.dtd">
<svg version="1.1" id="Layer_1" xmlns="http://www.w3.org/2000/svg" xmlns:xlink="http://www.w3.org/1999/xlink" x="0px" y="0px"
	 width="25px" height="25px" viewBox="0 0 25 25" enable-background="new 0 0 25 25" xml:space="preserve">
<path d="M2.4,12.5c0,5.6,4.5,10.1,10.1,10.1c5.6,0,10.1-4.5,10.1-10.1c0-5.6-4.5-10.1-10.1-10.1C6.9,2.4,2.4,6.9,2.4,12.5 M25,12.5
	C25,19.4,19.4,25,12.5,25C5.6,25,0,19.4,0,12.5C0,5.6,5.6,0,12.5,0C19.4,0,25,5.6,25,12.5 M9.1,7.2l2-1.9l7.3,7.3l-7.3,7.3l-2-1.9
	l5.3-5.4L9.1,7.2z"/>
</svg>
