<?xml version="1.0" encoding="utf-8"?>
<!-- Generator: Adobe Illustrator 19.0.0, SVG Export Plug-In . SVG Version: 6.00 Build 0)  -->
<svg version="1.1" id="Layer_1" xmlns="http://www.w3.org/2000/svg" xmlns:xlink="http://www.w3.org/1999/xlink" x="0px" y="0px"
	 viewBox="0 0 26.3 28.7" style="enable-background:new 0 0 26.3 28.7;" height="29" width="27" xml:space="preserve">
<style type="text/css">
	.st0{fill:none;stroke:#231F20;stroke-width:1.5;stroke-linecap:round;stroke-linejoin:round;stroke-miterlimit:10;}
</style>
<g>
	<path class="st0" d="M0.8,18.3l2,0l1.7,0c1.6,0,2.8,1.3,2.8,2.9l0,2.6c0,1.6,1.2,2.9,2.8,2.9l1.7,0l4.4,0"/>
	<path id="phone-3-icon" class="st0" d="M25.6,25.5l-3.7-7.3l-3.7,1.7c-2.4,1.2-7.3-8.6-4.9-9.8l3.6-1.9l-3.7-7.3L9.5,2.6
		C8,3.4,3.7,5.3,10,17.8c6.3,12.6,10.3,10.3,11.9,9.5L25.6,25.5z"/>
	<line class="st0" x1="19.4" y1="19.3" x2="23.1" y2="26.7"/>
	<line class="st0" x1="14.3" y1="9.2" x2="10.6" y2="2"/>
</g>
</svg>
