<?xml version="1.0" encoding="utf-8"?>
<!-- Generator: Adobe Illustrator 16.0.4, SVG Export Plug-In . SVG Version: 6.00 Build 0)  -->
<!DOCTYPE svg PUBLIC "-//W3C//DTD SVG 1.1//EN" "http://www.w3.org/Graphics/SVG/1.1/DTD/svg11.dtd">
<svg version="1.1" id="Layer_1" xmlns="http://www.w3.org/2000/svg" xmlns:xlink="http://www.w3.org/1999/xlink" x="0px" y="0px"
	 width="346.5px" height="37px" viewBox="0 0 346.5 37" enable-background="new 0 0 346.5 37" xml:space="preserve">
<rect fill="#656565" width="37" height="37"/>
<g>
	<path fill="#FFFFFF" d="M23.776,10.714c0,0.195,0,2.782,0,2.977c0.194,0,2.092,0,2.092,0l-2.336,8.692
		c0,0-2.858-11.507-2.898-11.669c-0.156,0-2.87,0-3.023,0c-0.042,0.158-3.135,11.67-3.135,11.67l-2.151-8.693c0,0,1.983,0,2.178,0
		c0-0.194,0-2.781,0-2.977c-0.208,0-8.529,0-8.738,0c0,0.195,0,2.782,0,2.977c0.193,0,1.937,0,1.937,0s3.341,13.364,3.381,13.527
		c0.161,0,4.532,0,4.69,0c0.042-0.159,2.239-8.513,2.239-8.513s2.088,8.352,2.128,8.513c0.16,0,4.532,0,4.69,0
		c0.042-0.16,3.558-13.527,3.558-13.527s1.727,0,1.92,0c0-0.194,0-2.781,0-2.977C30.102,10.714,23.982,10.714,23.776,10.714z"/>
</g>
<g>
	<path fill="#FFFFFF" d="M56.557,12.464c0.52,0.152,0.988,0.356,1.404,0.612v2.52l-1.536-1.536c-0.24-0.239-0.5-0.411-0.78-0.516
		c-0.28-0.104-0.604-0.156-0.972-0.156c-0.656,0-1.228,0.177-1.716,0.528c-0.488,0.352-0.884,0.824-1.188,1.416
		c-0.304,0.592-0.532,1.252-0.684,1.979c-0.152,0.729-0.228,1.461-0.228,2.196c0,0.736,0.08,1.473,0.24,2.208
		c0.16,0.736,0.396,1.408,0.708,2.016c0.312,0.608,0.711,1.093,1.2,1.452c0.488,0.36,1.044,0.54,1.668,0.54
		c0.368,0,0.692-0.052,0.972-0.155c0.28-0.104,0.54-0.276,0.78-0.517l1.536-1.536v2.424c-0.432,0.272-0.904,0.48-1.416,0.624
		c-0.512,0.145-1.136,0.217-1.872,0.217c-0.88,0-1.676-0.204-2.388-0.612c-0.712-0.408-1.308-0.96-1.788-1.656
		s-0.848-1.476-1.104-2.34c-0.256-0.864-0.384-1.752-0.384-2.664s0.128-1.804,0.384-2.676c0.256-0.872,0.636-1.652,1.14-2.34
		c0.504-0.688,1.136-1.236,1.896-1.645c0.76-0.408,1.62-0.611,2.58-0.611C55.521,12.236,56.036,12.312,56.557,12.464z"/>
	<path fill="#FFFFFF" d="M60.96,16.82c0.256-0.88,0.627-1.677,1.116-2.389s1.084-1.275,1.788-1.691s1.496-0.624,2.376-0.624
		s1.676,0.208,2.388,0.624c0.712,0.416,1.312,0.979,1.8,1.691c0.488,0.712,0.86,1.509,1.116,2.389
		c0.256,0.88,0.384,1.775,0.384,2.688s-0.124,1.809-0.372,2.688s-0.62,1.676-1.116,2.388c-0.496,0.712-1.1,1.276-1.812,1.692
		c-0.712,0.415-1.508,0.623-2.388,0.623s-1.672-0.208-2.376-0.623c-0.704-0.416-1.3-0.98-1.788-1.692s-0.86-1.508-1.116-2.388
		c-0.256-0.88-0.384-1.776-0.384-2.688S60.704,17.7,60.96,16.82z M68.017,25.268c0.496-0.367,0.896-0.855,1.2-1.464
		c0.304-0.607,0.524-1.284,0.66-2.027c0.136-0.744,0.204-1.5,0.204-2.269c0-0.768-0.068-1.523-0.204-2.268
		c-0.136-0.744-0.356-1.424-0.66-2.04c-0.304-0.616-0.704-1.104-1.2-1.464c-0.497-0.36-1.088-0.54-1.776-0.54
		c-0.672,0-1.256,0.184-1.752,0.552c-0.496,0.368-0.896,0.856-1.2,1.464c-0.304,0.608-0.524,1.28-0.66,2.016
		c-0.136,0.736-0.204,1.497-0.204,2.28c0,0.784,0.068,1.544,0.204,2.28c0.136,0.736,0.356,1.408,0.66,2.016
		c0.304,0.608,0.704,1.097,1.2,1.464c0.496,0.368,1.08,0.553,1.752,0.553C66.928,25.82,67.52,25.636,68.017,25.268z"/>
	<path fill="#FFFFFF" d="M75.528,25.46V13.556l-1.104-1.128h3.792l-1.128,1.128v11.88h3.384l1.536-1.536v2.688h-7.584L75.528,25.46z
		"/>
	<path fill="#FFFFFF" d="M85.128,25.46V13.556l-1.104-1.128h3.792l-1.128,1.128v11.88h3.384l1.536-1.536v2.688h-7.584L85.128,25.46z
		"/>
	<path fill="#FFFFFF" d="M93.624,26.588l1.104-1.128V13.556l-1.104-1.128h8.472v2.568l-1.512-1.512h-4.296v5.039h3.192l1.128-1.128
		v3.312L99.48,19.58h-3.192v5.952h4.296l1.512-1.536v2.592H93.624z"/>
	<path fill="#FFFFFF" d="M112.488,19.028h3.792l-1.104,1.128v5.592c-0.496,0.32-1.024,0.572-1.584,0.756
		c-0.561,0.184-1.329,0.276-2.304,0.276c-0.944,0-1.82-0.196-2.628-0.589c-0.808-0.392-1.508-0.932-2.1-1.619
		c-0.592-0.688-1.048-1.473-1.368-2.353c-0.32-0.88-0.48-1.784-0.48-2.712c0-0.943,0.16-1.855,0.48-2.736
		c0.32-0.879,0.776-1.659,1.368-2.34c0.592-0.68,1.292-1.216,2.1-1.607c0.808-0.393,1.684-0.588,2.628-0.588
		c0.72,0,1.316,0.067,1.788,0.203c0.472,0.137,0.972,0.341,1.5,0.612V15.5l-1.56-1.536c-0.24-0.24-0.496-0.412-0.768-0.516
		c-0.272-0.104-0.592-0.156-0.96-0.156c-0.656,0-1.276,0.176-1.86,0.528c-0.584,0.352-1.088,0.824-1.512,1.416
		s-0.756,1.26-0.996,2.004c-0.24,0.744-0.36,1.5-0.36,2.268c0,0.769,0.1,1.524,0.3,2.269c0.2,0.743,0.5,1.412,0.9,2.004
		c0.399,0.592,0.9,1.063,1.5,1.416c0.6,0.352,1.275,0.527,2.028,0.527c0.576,0,1.04-0.1,1.392-0.3
		c0.352-0.2,0.664-0.436,0.936-0.708v-4.56L112.488,19.028z"/>
	<path fill="#FFFFFF" d="M118.656,26.588l1.104-1.128V13.556l-1.104-1.128h8.472v2.568l-1.512-1.512h-4.296v5.039h3.192l1.128-1.128
		v3.312l-1.128-1.128h-3.192v5.952h4.296l1.512-1.536v2.592H118.656z"/>
	<path fill="#FFFFFF" d="M135.719,16.82c0.256-0.88,0.627-1.677,1.116-2.389s1.084-1.275,1.788-1.691s1.496-0.624,2.376-0.624
		s1.676,0.208,2.388,0.624c0.712,0.416,1.312,0.979,1.8,1.691c0.488,0.712,0.86,1.509,1.116,2.389
		c0.256,0.88,0.384,1.775,0.384,2.688s-0.124,1.809-0.372,2.688s-0.62,1.676-1.116,2.388c-0.496,0.712-1.1,1.276-1.812,1.692
		c-0.712,0.415-1.508,0.623-2.388,0.623s-1.672-0.208-2.376-0.623c-0.704-0.416-1.3-0.98-1.788-1.692s-0.86-1.508-1.116-2.388
		c-0.256-0.88-0.384-1.776-0.384-2.688S135.463,17.7,135.719,16.82z M142.775,25.268c0.496-0.367,0.896-0.855,1.2-1.464
		c0.304-0.607,0.524-1.284,0.66-2.027c0.136-0.744,0.204-1.5,0.204-2.269c0-0.768-0.068-1.523-0.204-2.268
		c-0.136-0.744-0.356-1.424-0.66-2.04c-0.304-0.616-0.704-1.104-1.2-1.464c-0.497-0.36-1.088-0.54-1.776-0.54
		c-0.672,0-1.256,0.184-1.752,0.552c-0.496,0.368-0.896,0.856-1.2,1.464c-0.304,0.608-0.524,1.28-0.66,2.016
		c-0.136,0.736-0.204,1.497-0.204,2.28c0,0.784,0.068,1.544,0.204,2.28c0.136,0.736,0.356,1.408,0.66,2.016
		c0.304,0.608,0.704,1.097,1.2,1.464c0.496,0.368,1.08,0.553,1.752,0.553C141.687,25.82,142.279,25.636,142.775,25.268z"/>
	<path fill="#FFFFFF" d="M150.287,25.46V13.556l-1.104-1.128h8.472v2.568l-1.512-1.512h-4.296v4.943h3.192l1.128-1.128v3.312
		l-1.128-1.128h-3.192v5.976l1.128,1.128h-3.792L150.287,25.46z"/>
	<path fill="#FFFFFF" d="M171.575,26.588h-3.792l1.104-1.128V13.484h-2.664l-1.536,1.512v-2.568h9.96v2.568l-1.512-1.512h-2.688
		V25.46L171.575,26.588z"/>
	<path fill="#FFFFFF" d="M179.014,25.46l1.128,1.128h-3.792l1.104-1.128V13.556l-1.104-1.128h3.792l-1.128,1.128v4.872h5.953v-4.872
		l-1.129-1.128h3.816l-1.128,1.128V25.46l1.128,1.128h-3.816l1.129-1.128v-5.976h-5.953V25.46z"/>
	<path fill="#FFFFFF" d="M190.006,26.588l1.104-1.128V13.556l-1.104-1.128h8.473v2.568l-1.512-1.512h-4.297v5.039h3.192l1.128-1.128
		v3.312l-1.128-1.128h-3.192v5.952h4.297l1.512-1.536v2.592H190.006z"/>
	<path fill="#FFFFFF" d="M206.566,26.588l1.104-1.128V13.556l-1.104-1.128h8.471v2.568l-1.512-1.512h-4.296v5.039h3.192l1.128-1.128
		v3.312l-1.128-1.128h-3.192v5.952h4.296l1.512-1.536v2.592H206.566z"/>
	<path fill="#FFFFFF" d="M221.133,26.588h-3.695l1.2-1.224V13.652l-1.2-1.225h2.928l6.385,10.225v-9l-1.225-1.225h3.696
		l-1.224,1.225v14.016l-8.088-12.912v10.608L221.133,26.588z"/>
	<path fill="#FFFFFF" d="M233.613,13.532l2.904,9.792l3-9.792l-1.104-1.104h3.408l-1.151,1.128l-4.104,13.032h-0.72l-3.984-13.032
		l-1.152-1.128h4.008L233.613,13.532z"/>
	<path fill="#FFFFFF" d="M247.605,12.428l-1.129,1.128V25.46l1.129,1.128h-3.816l1.128-1.128V13.556l-1.128-1.128H247.605z"/>
	<path fill="#FFFFFF" d="M254.157,26.588h-3.792l1.104-1.128V13.556l-1.104-1.128h4.392c0.592,0,1.164,0.093,1.716,0.276
		c0.553,0.184,1.045,0.448,1.477,0.792s0.771,0.76,1.02,1.248s0.372,1.02,0.372,1.596c0,0.688-0.252,1.353-0.756,1.992
		s-1.14,1.08-1.907,1.32l3.168,5.808l1.104,1.128h-2.352l-3.433-6.6h-2.136v5.472L254.157,26.588z M253.029,18.932h1.728
		c0.752,0,1.392-0.252,1.921-0.756c0.527-0.504,0.791-1.124,0.791-1.86c0-0.768-0.264-1.432-0.791-1.991
		c-0.529-0.561-1.169-0.84-1.921-0.84h-1.728V18.932z"/>
	<path fill="#FFFFFF" d="M263.061,16.82c0.256-0.88,0.628-1.677,1.116-2.389s1.084-1.275,1.788-1.691s1.496-0.624,2.376-0.624
		s1.676,0.208,2.388,0.624c0.713,0.416,1.312,0.979,1.801,1.691c0.487,0.712,0.859,1.509,1.115,2.389s0.385,1.775,0.385,2.688
		s-0.125,1.809-0.373,2.688s-0.619,1.676-1.115,2.388s-1.1,1.276-1.812,1.692c-0.712,0.415-1.508,0.623-2.388,0.623
		s-1.672-0.208-2.376-0.623c-0.704-0.416-1.3-0.98-1.788-1.692s-0.86-1.508-1.116-2.388s-0.384-1.776-0.384-2.688
		S262.805,17.7,263.061,16.82z M270.117,25.268c0.496-0.367,0.896-0.855,1.199-1.464c0.305-0.607,0.524-1.284,0.66-2.027
		c0.137-0.744,0.205-1.5,0.205-2.269c0-0.768-0.068-1.523-0.205-2.268c-0.136-0.744-0.355-1.424-0.66-2.04
		c-0.304-0.616-0.703-1.104-1.199-1.464c-0.496-0.36-1.088-0.54-1.776-0.54c-0.672,0-1.257,0.184-1.752,0.552
		c-0.496,0.368-0.896,0.856-1.2,1.464c-0.304,0.608-0.523,1.28-0.66,2.016c-0.136,0.736-0.203,1.497-0.203,2.28
		c0,0.784,0.067,1.544,0.203,2.28c0.137,0.736,0.356,1.408,0.66,2.016c0.305,0.608,0.704,1.097,1.2,1.464
		c0.495,0.368,1.08,0.553,1.752,0.553C269.029,25.82,269.621,25.636,270.117,25.268z"/>
	<path fill="#FFFFFF" d="M280.125,26.588h-3.696l1.2-1.224V13.652l-1.2-1.225h2.929l6.383,10.225v-9l-1.224-1.225h3.696
		l-1.225,1.225v14.016L278.9,14.756v10.608L280.125,26.588z"/>
	<path fill="#FFFFFF" d="M290.492,26.588l1.104-1.128V13.556l-1.104-1.128h3.024l4.272,7.248l4.248-7.248h2.639l-1.104,1.128V25.46
		l1.104,1.128h-3.791l1.128-1.128V14.78l-4.536,7.655l-4.607-7.752V25.46l1.127,1.128H290.492z"/>
	<path fill="#FFFFFF" d="M307.053,26.588l1.104-1.128V13.556l-1.104-1.128h8.471v2.568l-1.512-1.512h-4.296v5.039h3.192l1.128-1.128
		v3.312l-1.128-1.128h-3.192v5.952h4.296l1.512-1.536v2.592H307.053z"/>
	<path fill="#FFFFFF" d="M321.619,26.588h-3.695l1.2-1.224V13.652l-1.2-1.225h2.928l6.385,10.225v-9l-1.225-1.225h3.696
		l-1.224,1.225v14.016l-8.088-12.912v10.608L321.619,26.588z"/>
	<path fill="#FFFFFF" d="M338.18,26.588h-3.792l1.104-1.128V13.484h-2.664l-1.537,1.512v-2.568h9.961v2.568l-1.512-1.512h-2.688
		V25.46L338.18,26.588z"/>
</g>
</svg>
