<?xml version="1.0" encoding="utf-8"?>
<!-- Generator: Adobe Illustrator 19.0.0, SVG Export Plug-In . SVG Version: 6.00 Build 0)  -->
<svg version="1.1" id="Layer_1" xmlns="http://www.w3.org/2000/svg" xmlns:xlink="http://www.w3.org/1999/xlink" x="0px" y="0px"
	 viewBox="0 0 72.9 49" style="enable-background:new 0 0 72.9 49;" xml:space="preserve">
<style type="text/css">
	.st0{fill:#FFFFFF;}
</style>
<path id="XMLID_14_" class="st0" d="M53.5,0c0,0.6,0,8.3,0,8.8c0.6,0,6.2,0,6.2,0l-6.9,25.8c0,0-8.5-34.2-8.6-34.6c-0.5,0-8.5,0-9,0
	c-0.1,0.5-9.3,34.6-9.3,34.6L19.5,8.8c0,0,5.9,0,6.5,0c0-0.6,0-8.3,0-8.8C25.3,0,0.6,0,0,0c0,0.6,0,8.3,0,8.8c0.6,0,5.7,0,5.7,0
	s9.9,39.7,10,40.2c0.5,0,13.5,0,13.9,0c0.1-0.5,6.6-25.3,6.6-25.3s6.2,24.8,6.3,25.3c0.5,0,13.5,0,13.9,0
	c0.1-0.5,10.6-40.2,10.6-40.2s5.1,0,5.7,0c0-0.6,0-8.3,0-8.8C72.3,0,54.1,0,53.5,0z"/>
</svg>
